<?xml version="1.0"?>
<svg xmlns="http://www.w3.org/2000/svg" height="512px" viewBox="0 0 64 64" width="512px"><g><g id="Document-office-print"><path d="m61 21h-9v-10a1.033 1.033 0 0 0 -.29-.71l-8-8a1.033 1.033 0 0 0 -.71-.29h-30a1 1 0 0 0 -1 1v18h-9a1 1 0 0 0 -1 1v28a1 1 0 0 0 1 1h10v9a1 1 0 0 0 1 1h36a1 1 0 0 0 1-1v-9h10a1 1 0 0 0 1-1v-28a1 1 0 0 0 -1-1zm-17-15.59 4.59 4.59h-4.59zm-30-1.41h28v7a1 1 0 0 0 1 1h7v9h-36zm35 55h-34v-15h34zm11-10h-9v-5h2v-2h-42v2h2v5h-9v-26h56z" data-original="#000000" class="active-path" data-old_color="#000000" fill="#FFFFFF"/><path d="m9 25a3 3 0 1 0 3 3 3 3 0 0 0 -3-3zm0 4a1 1 0 1 1 1-1 1 1 0 0 1 -1 1z" data-original="#000000" class="active-path" data-old_color="#000000" fill="#FFFFFF"/><path d="m17 25a3 3 0 1 0 3 3 3 3 0 0 0 -3-3zm0 4a1 1 0 1 1 1-1 1 1 0 0 1 -1 1z" data-original="#000000" class="active-path" data-old_color="#000000" fill="#FFFFFF"/><path d="m17 53h27v2h-27z" data-original="#000000" class="active-path" data-old_color="#000000" fill="#FFFFFF"/><path d="m17 47h30v2h-30z" data-original="#000000" class="active-path" data-old_color="#000000" fill="#FFFFFF"/></g></g> </svg>
